<?xml version="1.0" standalone="no"?>
<!DOCTYPE svg PUBLIC "-//W3C//DTD SVG 20010904//EN"
 "http://www.w3.org/TR/2001/REC-SVG-20010904/DTD/svg10.dtd">
<svg version="1.0" xmlns="http://www.w3.org/2000/svg"
 width="2000.000000pt" height="707.000000pt" viewBox="0 0 2000.000000 707.000000"
 preserveAspectRatio="xMidYMid meet">

<g transform="translate(0.000000,707.000000) scale(0.100000,-0.100000)"
fill="#000000" stroke="none">
<path d="M10 3535 l0 -3525 9990 0 9990 0 0 3525 0 3525 -9990 0 -9990 0 0
-3525z m9480 1797 l0 -799 93 91 c293 289 711 433 1073 371 492 -85 811 -422
916 -970 21 -107 22 -141 25 -1163 l4 -1052 -345 0 -345 0 -3 978 -4 977 -22
75 c-42 140 -98 237 -187 325 -134 135 -262 185 -472 185 -184 0 -314 -39
-449 -135 -118 -84 -222 -242 -263 -399 -21 -78 -21 -100 -21 -1043 l0 -963
-345 0 -345 0 0 2160 0 2160 345 0 345 0 0 -798z m4504 -307 c501 -74 882
-333 1065 -726 103 -222 150 -486 137 -779 -6 -136 -20 -273 -32 -312 -5 -17
-69 -18 -1170 -18 l-1165 0 7 -37 c37 -207 264 -473 514 -602 166 -86 318
-121 519 -121 273 0 550 82 828 246 l97 57 21 -27 c38 -48 285 -460 285 -476
0 -14 -91 -91 -161 -136 -193 -125 -474 -216 -804 -260 -197 -27 -532 -24
-689 4 -962 177 -1435 846 -1300 1836 75 545 362 963 819 1190 317 158 668
213 1029 161z m-7274 -86 c245 -30 491 -125 705 -273 l80 -55 3 159 2 160 345
0 345 0 0 -1545 0 -1545 -345 0 -345 0 0 160 0 161 -52 -39 c-192 -139 -395
-228 -637 -279 -110 -23 -149 -27 -311 -27 -162 0 -201 4 -311 27 -221 47
-414 127 -587 246 -353 243 -581 591 -663 1013 -29 146 -31 394 -5 543 34 193
122 418 231 586 246 380 672 651 1112 708 98 12 334 13 433 0z m-2302 -1441
l-3 -1443 -27 -100 c-110 -415 -393 -726 -813 -894 -510 -204 -1096 -146
-1583 157 -88 55 -242 170 -242 181 1 8 346 502 363 518 9 9 25 1 72 -38 190
-159 411 -268 608 -299 93 -15 256 -8 342 15 144 38 283 123 395 242 83 87
129 159 169 261 l26 67 0 1040 0 1040 -402 3 -403 2 0 345 0 345 750 0 751 0
-3 -1442z m13782 1079 l0 -273 -780 -955 c-428 -525 -779 -957 -780 -961 0 -5
362 -8 805 -8 l805 0 0 -285 0 -285 -1297 2 -1298 3 -3 257 -2 257 377 473
c207 260 497 624 643 808 147 184 326 409 398 500 l132 165 -740 3 -740 2 0
285 0 285 1240 0 1240 0 0 -273z"/>
<path d="M13490 4411 c-322 -69 -589 -356 -645 -693 l-6 -38 817 0 817 0 -6
64 c-7 77 -49 189 -107 289 -57 95 -203 239 -295 290 -180 99 -378 129 -575
88z"/>
<path d="M6338 4335 c-187 -30 -376 -126 -513 -260 -183 -179 -280 -393 -292
-645 -7 -139 6 -231 51 -363 104 -304 365 -541 686 -623 59 -15 108 -19 235
-18 144 1 169 4 250 28 388 117 652 431 697 829 26 233 -42 483 -183 672 -50
67 -172 184 -238 229 -193 130 -462 189 -693 151z m312 -392 c191 -52 349
-211 405 -407 21 -72 24 -210 6 -286 -24 -101 -79 -199 -156 -275 -233 -232
-590 -233 -821 -1 -142 142 -200 336 -159 530 51 240 259 430 500 456 77 8
155 2 225 -17z"/>
</g>
</svg>
