<?xml version="1.0" standalone="no"?>
<!DOCTYPE svg PUBLIC "-//W3C//DTD SVG 20010904//EN"
 "http://www.w3.org/TR/2001/REC-SVG-20010904/DTD/svg10.dtd">
<svg version="1.0" xmlns="http://www.w3.org/2000/svg"
 width="670.000000pt" height="356.000000pt" viewBox="0 0 670.000000 356.000000"
 preserveAspectRatio="xMidYMid meet">

<g transform="translate(0.000000,356.000000) scale(0.100000,-0.100000)"
fill="#000000" stroke="none">
<path d="M1437 2784 c-4 -4 -7 -351 -7 -771 l0 -763 115 0 115 0 0 215 0 214
44 30 44 30 22 -62 c12 -34 49 -114 82 -178 227 -443 658 -719 1165 -745 118
-6 299 8 317 26 5 5 -3 56 -19 120 l-27 111 -77 -6 c-42 -4 -86 -8 -97 -10
-12 -3 -70 0 -130 5 -273 26 -498 128 -691 313 -146 140 -234 279 -297 468
-20 59 -36 114 -36 123 0 10 31 54 69 99 38 45 94 121 125 170 55 83 136 243
136 266 0 7 -40 11 -122 11 l-123 0 -37 -69 c-55 -102 -144 -215 -249 -316
l-94 -90 -5 405 -5 405 -106 3 c-58 1 -108 -1 -112 -4z"/>
<path d="M4060 2616 l0 -165 -87 -3 -88 -3 -3 -102 -3 -103 90 0 90 0 3 -362
3 -363 27 -57 c53 -114 169 -196 293 -206 l65 -5 0 112 c0 99 -2 111 -17 111
-37 1 -100 39 -121 72 -21 34 -22 45 -22 367 l0 331 80 0 80 0 0 105 0 105
-80 0 -80 0 -2 163 -3 162 -112 3 -113 3 0 -165z"/>
<path d="M4783 2442 c-61 -22 -124 -63 -160 -106 -35 -41 -75 -130 -77 -169
-1 -31 -1 -31 79 -49 153 -32 142 -32 149 3 22 112 159 153 230 69 26 -31 45
-116 30 -129 -5 -4 -45 -18 -89 -30 -195 -54 -339 -152 -393 -268 -23 -50 -27
-71 -27 -153 0 -82 4 -103 26 -151 35 -75 96 -134 177 -172 61 -29 76 -32 162
-32 75 1 107 6 152 23 74 30 150 99 182 165 41 84 48 159 44 458 -3 257 -5
277 -26 331 -32 80 -99 150 -180 190 -84 42 -195 50 -279 20z m255 -734 c-4
-138 -17 -175 -71 -209 -25 -15 -44 -19 -85 -16 -45 3 -59 9 -88 38 -36 37
-52 87 -40 133 15 60 88 116 201 157 91 32 88 36 83 -103z"/>
<path d="M2573 2436 c-62 -20 -126 -60 -163 -103 -42 -47 -87 -143 -100 -212
-16 -84 -12 -483 5 -564 27 -126 101 -227 205 -276 48 -23 68 -26 155 -26 91
0 106 3 165 31 36 17 85 51 109 75 41 42 101 132 101 154 0 10 -153 105 -168
105 -4 0 -15 -13 -25 -29 -38 -65 -125 -121 -189 -121 -34 0 -98 33 -117 59
-44 63 -46 60 135 171 225 139 255 164 296 247 29 60 33 77 33 148 0 69 -5 89
-32 147 -58 124 -162 196 -295 204 -46 2 -88 -1 -115 -10z m134 -217 c64 -24
106 -94 88 -148 -12 -40 -60 -85 -165 -154 l-105 -69 -3 93 c-6 157 26 242
103 275 37 16 46 17 82 3z"/>
<path d="M3404 2441 c-90 -22 -188 -101 -232 -187 -50 -98 -57 -144 -57 -404
0 -203 3 -256 18 -310 33 -121 104 -211 206 -262 66 -33 220 -33 303 1 76 29
156 104 198 182 l33 62 -22 16 c-11 9 -51 32 -88 50 l-66 35 -16 -25 c-54 -86
-150 -139 -226 -125 -48 9 -105 62 -108 100 -2 26 9 35 176 140 194 122 245
164 279 234 33 69 37 198 9 273 -24 63 -85 139 -141 174 -74 47 -183 65 -266
46z m153 -236 c60 -40 74 -121 30 -178 -14 -18 -74 -66 -134 -105 l-108 -72
-3 110 c-3 133 8 179 53 224 48 48 108 56 162 21z"/>
<path d="M3875 1308 c-11 -6 -43 -30 -72 -53 -28 -23 -72 -55 -97 -71 -25 -16
-46 -33 -45 -39 0 -5 24 -56 52 -113 l52 -102 75 49 c116 76 198 155 206 198
17 91 -93 176 -171 131z"/>
<path d="M3475 1068 c-27 -11 -51 -21 -53 -23 -3 -3 30 -133 54 -217 4 -13 11
-15 32 -8 71 21 122 46 122 57 0 13 -98 214 -103 212 -1 -1 -24 -10 -52 -21z"/>
</g>
</svg>
