<?xml version="1.0" encoding="utf-8"?>
<!-- Generator: Adobe Illustrator 19.0.0, SVG Export Plug-In . SVG Version: 6.00 Build 0)  -->
<svg version="1.2" baseProfile="tiny" id="Layer_1" xmlns="http://www.w3.org/2000/svg" xmlns:xlink="http://www.w3.org/1999/xlink"
	 x="0px" y="0px" viewBox="-244 404.9 106 32" xml:space="preserve">
<path fill="#CD1F26" d="M-225.9,434.3c0.3-0.5,0.3-1.1,0.5-1.7c0.7-2.8,1.3-5.6,2-8.4c0.2-1,0.8-1.5,1.8-1.6c0.2,0,0.3,0,0.5,0
	c19.8,0,39.7,0,59.5,0c0.3,0,0.7,0,1,0.1c0.9,0.4,1.4,1.3,1.2,2.3c-0.8,3.3-1.6,6.7-2.4,10c-0.2,1-0.7,1.4-1.7,1.6
	c-0.1,0-0.2,0-0.3,0c-19.9,0-39.9,0-59.8,0c-0.1,0-0.2,0-0.3,0c-0.1,0-0.3,0-0.4-0.1c-0.7-0.2-1.1-0.7-1.4-1.4
	C-225.9,434.8-225.9,434.5-225.9,434.3z M-215.2,429.7C-215.2,429.7-215.1,429.8-215.2,429.7c-0.2,1.2-0.5,2.4-0.9,3.5
	c-0.1,0.2-0.1,0.3,0.2,0.3c0.7,0,1.4,0,2.1,0c0.2,0,0.3-0.1,0.3-0.2c0.1-0.4,0.2-0.7,0.3-1.1c0.6-2.1,1.1-4.3,1.7-6.4
	c0.1-0.2,0.1-0.4-0.2-0.3c-0.5,0-1,0.1-1.4,0c-0.9-0.1-1.5,0.2-2,0.9c-0.5,0.7-1.1,1.2-1.7,1.9c-0.3-0.9-0.6-1.7-0.9-2.5
	c-0.1-0.2-0.1-0.3-0.3-0.3c-0.7,0-1.4,0-2.1,0c-0.2,0-0.3,0.1-0.3,0.3c-0.7,2.5-1.3,5-2,7.4c-0.1,0.3,0,0.3,0.3,0.3
	c0.6,0,1.3,0,1.9,0c0.3,0,0.4-0.1,0.4-0.3c0.3-1.2,0.6-2.4,1-3.6c0.4,1,0.7,1.9,1.1,2.8C-216.8,431.5-216,430.6-215.2,429.7z
	 M-203.3,429.6c0.6,1.3,1.2,2.5,1.8,3.7c0.1,0.2,0.2,0.3,0.5,0.3c0.6,0,1.2,0,1.8,0c0.2,0,0.3,0,0.4-0.3c0.7-2.5,1.3-5,2-7.5
	c0.1-0.2,0-0.3-0.2-0.3c-0.7,0-1.4,0-2.1,0c-0.2,0-0.3,0.1-0.3,0.2c-0.1,0.5-0.2,0.9-0.4,1.4c-0.2,0.7-0.4,1.4-0.6,2.2
	c-0.1-0.2-0.2-0.3-0.2-0.5c-0.5-1-1-2-1.4-3.1c-0.1-0.2-0.2-0.3-0.4-0.3c-0.6,0-1.3,0-1.9,0c-0.2,0-0.3,0-0.3,0.2
	c-0.7,2.5-1.3,5-2,7.5c-0.1,0.3,0,0.3,0.3,0.3c0.6,0,1.2,0,1.8,0c0.4,0,0.6-0.1,0.7-0.5C-204,431.9-203.6,430.8-203.3,429.6z
	 M-176.3,433.5c1,0,2.1,0,3.1,0c0.3,0,0.4-0.1,0.5-0.3c0.1-0.5,0.2-1,0.4-1.5c0.1-0.3,0-0.4-0.3-0.4c-1.2,0-2.4,0-3.5,0
	c-0.1,0-0.2,0.1-0.3-0.1c-0.1-0.3,0.3-0.8,0.6-0.8c1.1,0,2.1,0,3.2,0c0.3,0,0.4-0.1,0.5-0.4c0.1-0.4,0.2-0.8,0.3-1.2
	c0.1-0.3,0.1-0.4-0.3-0.4c-1.1,0-2.1,0-3.2,0c-0.1,0-0.2,0.1-0.3-0.1c-0.1-0.3,0.2-0.7,0.5-0.7c1.2,0,2.4,0,3.5,0
	c0.2,0,0.3-0.1,0.4-0.3c0.1-0.5,0.3-1.1,0.4-1.6c0.1-0.2,0-0.3-0.2-0.3c-2.1,0-4.2,0-6.2,0c-0.2,0-0.3,0.1-0.4,0.3
	c-0.7,2.5-1.3,4.9-2,7.4c-0.1,0.3,0,0.3,0.3,0.3C-178.3,433.5-177.3,433.5-176.3,433.5z M-193.9,425.5c-0.4,0-0.7,0-1.1,0
	c-0.2,0-0.3,0-0.3,0.2c-0.4,1.5-0.9,3-1.1,4.5c-0.3,1.5,0.4,2.7,1.8,3.2c1.2,0.4,2.4,0.3,3.5-0.1c1.3-0.5,2-1.5,2.4-2.8
	c0.5-1.6,0.9-3.2,1.3-4.8c0.1-0.2,0-0.3-0.2-0.3c-0.7,0-1.4,0-2.1,0c-0.3,0-0.4,0.1-0.4,0.3c-0.3,1.3-0.7,2.6-1,3.9
	c-0.1,0.4-0.2,0.8-0.5,1.1c-0.4,0.4-1,0.6-1.5,0.3c-0.4-0.2-0.6-0.6-0.5-1.2c0-0.2,0.1-0.4,0.1-0.6c0.3-1.2,0.6-2.4,1-3.6
	c0.1-0.2,0-0.4-0.2-0.3C-193.2,425.5-193.5,425.5-193.9,425.5z M-167.3,433.7c1.2,0,2.3-0.3,3-1.1c1.1-1.2,0.9-2.9-0.6-3.7
	c-0.3-0.1-0.5-0.2-0.8-0.3c-0.4-0.2-0.8-0.3-1.2-0.5c-0.2-0.1-0.3-0.2-0.3-0.3c0-0.2,0.2-0.3,0.3-0.3c0.2,0,0.4,0,0.6,0
	c0.6,0.1,1.2,0.3,1.7,0.7c0.2,0.2,0.3,0.1,0.5-0.1c0.3-0.4,0.7-0.9,1.1-1.3c0.3-0.3,0.2-0.4-0.1-0.6c-1.3-0.9-2.8-1.1-4.4-0.8
	c-1,0.2-1.9,0.7-2.3,1.8c-0.5,1.1-0.1,2.1,1,2.7c0.3,0.2,0.6,0.3,0.9,0.4c0.4,0.1,0.8,0.3,1.2,0.5c0.2,0.1,0.3,0.2,0.2,0.4
	c0,0.2-0.2,0.3-0.4,0.3c-0.1,0-0.2,0-0.3,0c-0.9,0-1.7-0.4-2.4-0.9c-0.2-0.1-0.3-0.2-0.4,0c-0.4,0.5-0.8,0.9-1.2,1.4
	c-0.1,0.2-0.1,0.3,0,0.4C-170,433.2-168.8,433.6-167.3,433.7z M-182.5,425.5c-1.1,0-2.3,0-3.4,0c-0.2,0-0.3,0-0.4,0.2
	c-0.1,0.6-0.3,1.2-0.5,1.8c-0.1,0.2,0,0.3,0.2,0.3c0.6,0,1.1,0,1.7,0c0.3,0,0.3,0.1,0.2,0.3c-0.5,1.7-0.9,3.4-1.4,5.1
	c-0.1,0.2,0,0.3,0.2,0.3c0.7,0,1.4,0,2.1,0c0.3,0,0.4-0.1,0.4-0.3c0.4-1.7,0.9-3.4,1.4-5.1c0.1-0.2,0.1-0.3,0.4-0.3
	c0.6,0,1.2,0,1.8,0c0.2,0,0.3-0.1,0.4-0.3c0.1-0.5,0.3-1.1,0.4-1.6c0.1-0.3,0-0.4-0.3-0.4C-180.2,425.5-181.3,425.5-182.5,425.5z
	 M-206.7,425.5c-0.9,0-1.7,0-2.5,0c-0.2,0-0.2,0.1-0.3,0.2c-0.7,2.5-1.3,5-2,7.5c-0.1,0.2,0,0.3,0.2,0.3c0.7,0,1.3,0,2,0
	c0.3,0,0.4-0.1,0.5-0.4c0.3-1.2,0.7-2.5,1-3.7C-207.4,428.2-207.1,426.9-206.7,425.5z"/>
<path fill="#FBEFF0" d="M-224.1,436.6c0.1,0,0.2,0,0.3,0c19.9,0,39.9,0,59.8,0c0.1,0,0.2,0,0.3,0c0,0,0,0,0,0.1
	C-183.8,436.7-204,436.7-224.1,436.6C-224.1,436.7-224.1,436.6-224.1,436.6z"/>
<path fill="#FDFAFA" d="M-224.1,436.6C-224.1,436.6-224.1,436.7-224.1,436.6c-0.5,0.1-1.1,0.1-1.6,0.1c-0.2,0-0.2,0-0.2-0.2
	c0-0.5,0-0.9,0-1.4c0.3,0.7,0.6,1.2,1.4,1.4C-224.4,436.6-224.3,436.6-224.1,436.6z"/>
<path fill="#161615" d="M-176.5,412.8c0.2,3.5-2.5,6.9-6,7.5c-4.1,0.7-7.8-1.9-8.5-6c-0.7-4.4,1.7-7.6,5-8.7
	c4.2-1.4,8.7,1.5,9.4,5.8C-176.6,411.9-176.5,412.3-176.5,412.8z M-180.2,412.6c0-0.2,0-0.5-0.1-0.9c-0.3-1.4-1.5-2.6-2.9-2.9
	c-1.5-0.2-2.8,0.4-3.6,1.6c-0.6,1-0.7,2.1-0.5,3.3c0.5,2.7,3.5,4,5.6,2.3C-180.6,415.2-180.2,414-180.2,412.6z"/>
<path fill="#161615" d="M-207.6,412.8c-0.1-3.7,2.4-6.6,5.5-7.4c3.9-1,8,1.4,8.9,5.4c0.6,2.8,0.2,5.4-2,7.5
	c-2.2,2.1-4.8,2.7-7.6,1.6c-2.9-1-4.4-3.2-4.8-6.2C-207.6,413.4-207.6,413.1-207.6,412.8z M-196.7,412.6c0-0.3,0-0.7-0.2-1.1
	c-0.4-1.4-1.2-2.3-2.6-2.6c-1.3-0.3-2.5,0-3.4,1.1c-1.1,1.3-1.2,2.8-0.7,4.4c0.8,2.6,4,3.3,5.9,1.4
	C-197,414.9-196.7,413.9-196.7,412.6z"/>
<path fill="#161616" d="M-220.1,406.7c0.9-0.7,1.8-1.2,2.9-1.4c3.3-0.5,6.2,1,6.9,4.6c0.1,0.6,0.2,1.3,0.2,1.9c0,2.6,0,5.2,0,7.8
	c0,0.3,0,0.4-0.4,0.4c-1,0-1.9,0-2.9,0c-0.3,0-0.3-0.1-0.3-0.4c0-2.5,0-5,0-7.5c0-0.5,0-0.9-0.1-1.4c-0.4-1.7-2.1-2.5-3.8-1.8
	c-1.3,0.5-2,1.7-2,3.1c0,2.6,0,5.1,0,7.7c0,0.2,0,0.3-0.3,0.3c-1,0-2.1,0-3.1,0c-0.2,0-0.3-0.1-0.3-0.3c0-4.7,0-9.3,0-14
	c0-0.2,0.1-0.3,0.3-0.3c0.8,0,1.6,0,2.3,0c0.2,0,0.3,0.1,0.3,0.3C-220.3,406.1-220.2,406.3-220.1,406.7z"/>
<path fill="#161615" d="M-171.1,406.7c1.2-0.9,2.4-1.4,3.9-1.5c3.6-0.1,5.7,2.1,6.1,5.4c0.2,1.5,0.1,3,0.1,4.5c0,1.6,0,3.1,0,4.7
	c0,0.3-0.1,0.3-0.3,0.3c-1,0-2,0-3,0c-0.3,0-0.3-0.1-0.3-0.3c0-2.6,0-5.2,0-7.9c0-0.3,0-0.7-0.1-1c-0.5-2.2-2.6-2.5-4-1.7
	c-1.2,0.6-1.8,1.6-1.8,2.9c0,2.6,0,5.1,0,7.7c0,0.3-0.1,0.4-0.4,0.4c-1,0-2,0-3,0c-0.2,0-0.3,0-0.3-0.3c0-4.7,0-9.3,0-14
	c0-0.2,0.1-0.3,0.3-0.3c0.8,0,1.5,0,2.3,0c0.2,0,0.3,0.1,0.4,0.3C-171.3,406.1-171.2,406.4-171.1,406.7z"/>
<path fill="#FEFCFC" d="M-215.2,429.7c-0.8,0.9-1.6,1.8-2.5,2.7c-0.4-0.9-0.7-1.8-1.1-2.8c-0.3,1.3-0.7,2.4-1,3.6
	c-0.1,0.3-0.2,0.4-0.4,0.3c-0.6,0-1.3,0-1.9,0c-0.2,0-0.3,0-0.3-0.3c0.7-2.5,1.3-5,2-7.4c0-0.2,0.1-0.3,0.3-0.3c0.7,0,1.4,0,2.1,0
	c0.2,0,0.3,0.1,0.3,0.3c0.3,0.8,0.6,1.6,0.9,2.5c0.6-0.7,1.2-1.2,1.7-1.9c0.5-0.7,1.1-1,2-0.9c0.5,0.1,1,0,1.4,0
	c0.3,0,0.3,0.1,0.2,0.3c-0.6,2.1-1.1,4.3-1.7,6.4c-0.1,0.4-0.2,0.7-0.3,1.1c0,0.2-0.1,0.3-0.3,0.2c-0.7,0-1.4,0-2.1,0
	c-0.3,0-0.3-0.1-0.2-0.3C-215.7,432.1-215.4,430.9-215.2,429.7C-215.1,429.7-215.1,429.7-215.2,429.7
	C-215.2,429.6-215.2,429.7-215.2,429.7z"/>
<path fill="#FEFCFC" d="M-203.3,429.6c-0.3,1.2-0.7,2.3-0.9,3.4c-0.1,0.4-0.3,0.6-0.7,0.5c-0.6,0-1.2,0-1.8,0
	c-0.2,0-0.3-0.1-0.3-0.3c0.7-2.5,1.3-5,2-7.5c0.1-0.2,0.1-0.2,0.3-0.2c0.6,0,1.3,0,1.9,0c0.2,0,0.3,0.1,0.4,0.3c0.5,1,1,2,1.4,3.1
	c0.1,0.1,0.1,0.2,0.2,0.5c0.2-0.8,0.4-1.5,0.6-2.2c0.1-0.4,0.3-0.9,0.4-1.4c0-0.2,0.1-0.2,0.3-0.2c0.7,0,1.4,0,2.1,0
	c0.2,0,0.2,0.1,0.2,0.3c-0.7,2.5-1.3,5-2,7.5c-0.1,0.2-0.2,0.3-0.4,0.3c-0.6,0-1.2,0-1.8,0c-0.2,0-0.4-0.1-0.5-0.3
	C-202.1,432-202.7,430.8-203.3,429.6z"/>
<path fill="#FDFBFB" d="M-176.3,433.5c-1,0-2.1,0-3.1,0c-0.3,0-0.4,0-0.3-0.3c0.7-2.5,1.3-4.9,2-7.4c0.1-0.2,0.1-0.3,0.4-0.3
	c2.1,0,4.2,0,6.2,0c0.3,0,0.3,0.1,0.2,0.3c-0.2,0.5-0.3,1.1-0.4,1.6c-0.1,0.2-0.1,0.3-0.4,0.3c-1.2,0-2.4,0-3.5,0
	c-0.3,0-0.6,0.4-0.5,0.7c0,0.2,0.2,0.1,0.3,0.1c1.1,0,2.1,0,3.2,0c0.4,0,0.4,0.1,0.3,0.4c-0.1,0.4-0.2,0.8-0.3,1.2
	c-0.1,0.3-0.2,0.4-0.5,0.4c-1.1,0-2.1,0-3.2,0c-0.3,0-0.7,0.5-0.6,0.8c0.1,0.2,0.2,0.1,0.3,0.1c1.2,0,2.4,0,3.5,0
	c0.3,0,0.4,0,0.3,0.4c-0.2,0.5-0.3,1-0.4,1.5c-0.1,0.3-0.2,0.3-0.5,0.3C-174.2,433.5-175.3,433.5-176.3,433.5z"/>
<path fill="#FEFCFC" d="M-193.9,425.5c0.4,0,0.7,0,1.1,0c0.3,0,0.3,0.1,0.2,0.3c-0.3,1.2-0.6,2.4-1,3.6c-0.1,0.2-0.1,0.4-0.1,0.6
	c-0.1,0.6,0.1,1,0.5,1.2c0.5,0.2,1.2,0.1,1.5-0.3c0.3-0.3,0.4-0.7,0.5-1.1c0.4-1.3,0.7-2.6,1-3.9c0.1-0.2,0.2-0.3,0.4-0.3
	c0.7,0,1.4,0,2.1,0c0.2,0,0.3,0.1,0.2,0.3c-0.4,1.6-0.8,3.2-1.3,4.8c-0.4,1.3-1.1,2.4-2.4,2.8c-1.2,0.4-2.4,0.4-3.5,0.1
	c-1.4-0.4-2.1-1.7-1.8-3.2c0.3-1.5,0.8-3,1.1-4.5c0-0.2,0.1-0.2,0.3-0.2C-194.6,425.5-194.2,425.5-193.9,425.5z"/>
<path fill="#FEFCFC" d="M-167.3,433.7c-1.4,0-2.6-0.4-3.7-1.3c-0.2-0.1-0.2-0.2,0-0.4c0.4-0.5,0.8-0.9,1.2-1.4
	c0.2-0.2,0.3-0.2,0.4,0c0.7,0.5,1.5,0.9,2.4,0.9c0.1,0,0.2,0,0.3,0c0.2,0,0.3-0.1,0.4-0.3c0-0.2-0.1-0.3-0.2-0.4
	c-0.4-0.2-0.8-0.3-1.2-0.5c-0.3-0.1-0.6-0.2-0.9-0.4c-1.1-0.6-1.4-1.6-1-2.7c0.4-1,1.3-1.6,2.3-1.8c1.5-0.3,3-0.1,4.4,0.8
	c0.3,0.2,0.4,0.3,0.1,0.6c-0.4,0.4-0.7,0.8-1.1,1.3c-0.2,0.2-0.3,0.2-0.5,0.1c-0.5-0.4-1.1-0.6-1.7-0.7c-0.2,0-0.4,0-0.6,0
	c-0.2,0-0.3,0.1-0.3,0.3c0,0.2,0.1,0.3,0.3,0.3c0.4,0.2,0.8,0.3,1.2,0.5c0.3,0.1,0.5,0.2,0.8,0.3c1.5,0.8,1.7,2.5,0.6,3.7
	C-165,433.3-166.1,433.7-167.3,433.7z"/>
<path fill="#FDFCFC" d="M-182.5,425.5c1.1,0,2.2,0,3.3,0c0.3,0,0.4,0.1,0.3,0.4c-0.2,0.5-0.3,1.1-0.4,1.6c-0.1,0.2-0.2,0.3-0.4,0.3
	c-0.6,0-1.2,0-1.8,0c-0.2,0-0.3,0.1-0.4,0.3c-0.5,1.7-0.9,3.4-1.4,5.1c-0.1,0.2-0.2,0.3-0.4,0.3c-0.7,0-1.4,0-2.1,0
	c-0.2,0-0.3,0-0.2-0.3c0.5-1.7,0.9-3.4,1.4-5.1c0.1-0.3,0-0.3-0.2-0.3c-0.6,0-1.1,0-1.7,0c-0.2,0-0.3,0-0.2-0.3
	c0.2-0.6,0.3-1.2,0.5-1.8c0.1-0.2,0.2-0.2,0.4-0.2C-184.7,425.5-183.6,425.5-182.5,425.5z"/>
<path fill="#FDFBFB" d="M-206.7,425.5c-0.4,1.3-0.7,2.6-1.1,3.9c-0.3,1.2-0.7,2.5-1,3.7c-0.1,0.3-0.2,0.4-0.5,0.4c-0.7,0-1.3,0-2,0
	c-0.3,0-0.3-0.1-0.2-0.3c0.7-2.5,1.3-5,2-7.5c0-0.1,0.1-0.2,0.3-0.2C-208.4,425.5-207.6,425.5-206.7,425.5z"/>
<path fill="#FDFDFD" d="M-180.2,412.6c0,1.5-0.4,2.7-1.5,3.5c-2.1,1.6-5.1,0.4-5.6-2.3c-0.2-1.1-0.1-2.3,0.5-3.3
	c0.7-1.3,2.1-1.9,3.6-1.6c1.4,0.2,2.7,1.4,2.9,2.9C-180.2,412-180.2,412.4-180.2,412.6z"/>
<path fill="#FDFDFD" d="M-196.7,412.6c0,1.3-0.3,2.3-1,3.1c-1.8,2-5.1,1.2-5.9-1.4c-0.5-1.6-0.4-3.1,0.7-4.4c0.9-1,2.1-1.4,3.4-1.1
	c1.4,0.3,2.2,1.3,2.6,2.6C-196.7,411.9-196.7,412.4-196.7,412.6z"/>
<path fill="#CD1F26" d="M-215.2,429.7C-215.2,429.7-215.2,429.6-215.2,429.7C-215.1,429.7-215.1,429.7-215.2,429.7
	C-215.1,429.8-215.2,429.7-215.2,429.7z"/>
</svg>
