<?xml version="1.0" encoding="utf-8"?>
<!-- Generator: Adobe Illustrator 19.0.0, SVG Export Plug-In . SVG Version: 6.00 Build 0)  -->
<svg version="1.1" id="Layer_1" xmlns="http://www.w3.org/2000/svg" xmlns:xlink="http://www.w3.org/1999/xlink" x="0px" y="0px"
	 viewBox="-252 381 106 32" style="enable-background:new -252 381 106 32;" xml:space="preserve">
<style type="text/css">
	.st0{fill:#E01A5A;}
	.st1{fill:#E01B5A;}
	.st2{fill:#020202;}
</style>
<g>
	<path class="st0" d="M-184.5,405c0-1.8,0-3.6,0-5.5c0-1.2,0.6-1.8,1.8-1.8c1.4,0,2.9,0,4.3,0c3.1,0,5.3,1.5,6.2,4.5
		c0.7,2.3,0.6,4.5-0.4,6.7c-1.1,2.3-3,3.4-5.5,3.4c-1.5,0-3,0-4.5,0c-1.1,0-1.8-0.7-1.8-1.8C-184.5,408.7-184.5,406.9-184.5,405z
		 M-181.2,405c0,1.3,0,2.6,0,3.9c0,0.3,0.1,0.4,0.4,0.4c0.8,0,1.6,0,2.4,0c1.5,0,2.4-0.7,2.9-2.2c0.4-1.3,0.4-2.7,0-4
		c-0.5-1.5-1.5-2.3-3.1-2.3c-0.7,0-1.5,0-2.2,0c-0.3,0-0.5,0.1-0.5,0.4C-181.1,402.5-181.2,403.8-181.2,405z"/>
	<path class="st1" d="M-207.6,397.5c2.4,0,4.9,1.7,6,4.3c1.2,3.1,0.9,6.1-1.4,8.6c-3.4,3.7-9.7,2.5-11.6-2.2
		c-1.4-3.5-0.4-7.3,2.5-9.4C-210.9,397.9-209.5,397.5-207.6,397.5z M-204.4,405c0-0.5,0-1-0.2-1.5c-0.5-1.4-1.4-2.5-3-2.7
		c-1.4-0.2-2.6,0.3-3.4,1.4c-1.1,1.6-1.1,4,0,5.6c1.4,2.1,4.4,2.1,5.8,0C-204.6,406.9-204.3,406-204.4,405z"/>
	<path class="st1" d="M-200,405c0-3.2,1.8-6,4.6-7c4.3-1.6,9,1.2,9.5,5.8c0.3,2.4-0.2,4.5-1.7,6.3c-3.6,4.1-10.2,2.8-11.9-2.4
		C-199.9,406.8-200.1,405.9-200,405z M-192.8,400.7c-1.3,0-2.4,0.5-3.1,1.6c-0.9,1.5-1,3.2-0.3,4.8c0.6,1.3,1.6,2.2,3.1,2.2
		c1.5,0.1,2.6-0.6,3.3-1.8c0.9-1.6,0.9-3.3,0-4.9C-190.5,401.4-191.5,400.7-192.8,400.7z"/>
	<path class="st2" d="M-205.8,395.7c-3.2,0-5.9-2.2-6.6-5.6c-0.7-3.3,1.1-6.7,4-7.9c4.2-1.7,8.7,1,9.2,5.5c0.3,2.8-0.6,5-2.8,6.7
		C-203.1,395.3-204.4,395.7-205.8,395.7z M-202.5,388.8c0-0.5,0-0.9-0.2-1.3c-0.4-1.4-1.5-2.3-2.9-2.4c-1.4-0.1-2.6,0.6-3.2,1.9
		c-0.5,1.2-0.5,2.4,0.1,3.6c0.8,1.6,2.8,2.3,4.4,1.4C-203,391.3-202.6,390.1-202.5,388.8z"/>
	<path class="st2" d="M-185,388.7c0,3.1-1.8,5.7-4.6,6.6c-3.5,1.2-7.4-0.8-8.5-4.4c-0.9-3.1,0.1-6.3,2.5-7.9
		c3.7-2.6,8.9-0.8,10.2,3.5C-185.2,387.2-185,388-185,388.7z M-195,388.7c0,0.3,0,0.6,0.1,1c0.3,1.3,1,2.3,2.4,2.6
		c1.2,0.3,2.3,0,3.2-1c1-1.1,1.2-3,0.5-4.4c-0.8-1.6-2.6-2.3-4.2-1.5C-194.5,386-195,387.2-195,388.7z"/>
	<path class="st2" d="M-222.4,383.1c1.1-0.9,2.4-1.3,3.8-1.3c2.8,0,4.8,1.6,5.3,4.4c0.1,0.5,0.1,1,0.1,1.5c0,2.4,0,4.9,0,7.3
		c0,0.4-0.1,0.5-0.4,0.5c-0.8,0-1.7,0-2.5,0c-0.4,0-0.4-0.1-0.4-0.4c0-2.3,0-4.5,0-6.8c0-0.4,0-0.8-0.1-1.2
		c-0.4-1.8-2.3-2.5-3.9-1.6c-1,0.6-1.5,1.6-1.5,2.7c0,2.3,0,4.5,0,6.8c0,0.3-0.1,0.5-0.4,0.5c-0.8,0-1.7,0-2.5,0
		c-0.3,0-0.4,0-0.4-0.4c0-4.2,0-8.4,0-12.6c0-0.3,0.1-0.4,0.4-0.3c0.6,0,1.2,0,1.9,0c0.3,0,0.5,0.1,0.5,0.4
		C-222.6,382.7-222.5,382.8-222.4,383.1z"/>
	<path class="st2" d="M-181.4,383.1c1.6-1.3,3.4-1.6,5.3-1.2c2.2,0.5,3.3,2.2,3.8,4.3c0.1,0.4,0.1,0.8,0.1,1.3c0,2.5,0,5,0,7.5
		c0,0.3-0.1,0.4-0.4,0.4c-0.8,0-1.7,0-2.5,0c-0.4,0-0.4-0.1-0.4-0.4c0-2.3,0-4.6,0-6.9c0-0.7-0.1-1.4-0.5-2c-1-1.4-3.3-1.3-4.4,0.2
		c-0.4,0.6-0.6,1.2-0.6,1.9c0,2.2,0,4.5,0,6.7c0,0.4-0.1,0.5-0.5,0.4c-0.9,0-1.7,0-2.6,0c-0.2,0-0.3-0.1-0.3-0.3c0-4.2,0-8.4,0-12.7
		c0-0.3,0.1-0.3,0.4-0.3c0.6,0,1.2,0,1.9,0c0.3,0,0.5,0.1,0.5,0.4C-181.6,382.7-181.5,382.8-181.4,383.1z"/>
	<path class="st1" d="M-225.3,405c0-1.8,0-3.6,0-5.4c0-1.3,0.6-1.9,1.9-1.9c2,0,4.1,0,6.1,0c1.2,0,2,1.3,1.4,2.3
		c-0.3,0.6-0.9,0.8-1.5,0.8c-1.4,0-2.8,0-4.2,0c-0.4,0-0.5,0.1-0.5,0.5c0,0.6,0,1.2,0,1.7c0,0.3,0.1,0.5,0.4,0.5c1.1,0,2.2,0,3.4,0
		c1,0,1.6,0.6,1.6,1.5c0,0.9-0.6,1.6-1.6,1.6c-1.1,0-2.2,0-3.4,0c-0.4,0-0.5,0.1-0.5,0.5c0,1.2,0,2.5,0,3.7c0,0.8-0.5,1.3-1.2,1.5
		c-0.8,0.2-1.5-0.1-1.9-0.7c-0.2-0.3-0.2-0.7-0.2-1.1C-225.3,408.7-225.3,406.9-225.3,405z"/>
</g>
</svg>
